%TF.GenerationSoftware,KiCad,Pcbnew,(6.0.11)*%
%TF.CreationDate,2023-11-05T19:40:27-06:00*%
%TF.ProjectId,PLLBoard,504c4c42-6f61-4726-942e-6b696361645f,rev?*%
%TF.SameCoordinates,Original*%
%TF.FileFunction,Copper,L1,Top*%
%TF.FilePolarity,Positive*%
%FSLAX46Y46*%
G04 Gerber Fmt 4.6, Leading zero omitted, Abs format (unit mm)*
G04 Created by KiCad (PCBNEW (6.0.11)) date 2023-11-05 19:40:27*
%MOMM*%
%LPD*%
G01*
G04 APERTURE LIST*
G04 Aperture macros list*
%AMRoundRect*
0 Rectangle with rounded corners*
0 $1 Rounding radius*
0 $2 $3 $4 $5 $6 $7 $8 $9 X,Y pos of 4 corners*
0 Add a 4 corners polygon primitive as box body*
4,1,4,$2,$3,$4,$5,$6,$7,$8,$9,$2,$3,0*
0 Add four circle primitives for the rounded corners*
1,1,$1+$1,$2,$3*
1,1,$1+$1,$4,$5*
1,1,$1+$1,$6,$7*
1,1,$1+$1,$8,$9*
0 Add four rect primitives between the rounded corners*
20,1,$1+$1,$2,$3,$4,$5,0*
20,1,$1+$1,$4,$5,$6,$7,0*
20,1,$1+$1,$6,$7,$8,$9,0*
20,1,$1+$1,$8,$9,$2,$3,0*%
G04 Aperture macros list end*
%TA.AperFunction,SMDPad,CuDef*%
%ADD10R,1.500000X2.000000*%
%TD*%
%TA.AperFunction,SMDPad,CuDef*%
%ADD11R,3.800000X2.000000*%
%TD*%
%TA.AperFunction,ComponentPad*%
%ADD12C,1.500000*%
%TD*%
%TA.AperFunction,SMDPad,CuDef*%
%ADD13R,1.500000X5.080000*%
%TD*%
%TA.AperFunction,SMDPad,CuDef*%
%ADD14RoundRect,0.250000X0.450000X-0.350000X0.450000X0.350000X-0.450000X0.350000X-0.450000X-0.350000X0*%
%TD*%
%TA.AperFunction,SMDPad,CuDef*%
%ADD15RoundRect,0.250000X-0.450000X0.350000X-0.450000X-0.350000X0.450000X-0.350000X0.450000X0.350000X0*%
%TD*%
%TA.AperFunction,SMDPad,CuDef*%
%ADD16RoundRect,0.250000X-0.475000X0.337500X-0.475000X-0.337500X0.475000X-0.337500X0.475000X0.337500X0*%
%TD*%
%TA.AperFunction,SMDPad,CuDef*%
%ADD17RoundRect,0.250000X-0.350000X-0.450000X0.350000X-0.450000X0.350000X0.450000X-0.350000X0.450000X0*%
%TD*%
%TA.AperFunction,SMDPad,CuDef*%
%ADD18RoundRect,0.150000X-0.150000X0.587500X-0.150000X-0.587500X0.150000X-0.587500X0.150000X0.587500X0*%
%TD*%
%TA.AperFunction,SMDPad,CuDef*%
%ADD19RoundRect,0.250000X0.475000X-0.337500X0.475000X0.337500X-0.475000X0.337500X-0.475000X-0.337500X0*%
%TD*%
%TA.AperFunction,SMDPad,CuDef*%
%ADD20RoundRect,0.250000X-0.337500X-0.475000X0.337500X-0.475000X0.337500X0.475000X-0.337500X0.475000X0*%
%TD*%
%TA.AperFunction,SMDPad,CuDef*%
%ADD21RoundRect,0.250000X0.337500X0.475000X-0.337500X0.475000X-0.337500X-0.475000X0.337500X-0.475000X0*%
%TD*%
%TA.AperFunction,SMDPad,CuDef*%
%ADD22R,0.300000X1.400000*%
%TD*%
%TA.AperFunction,SMDPad,CuDef*%
%ADD23R,2.100000X1.800000*%
%TD*%
%TA.AperFunction,ComponentPad*%
%ADD24R,1.700000X1.700000*%
%TD*%
%TA.AperFunction,ComponentPad*%
%ADD25O,1.700000X1.700000*%
%TD*%
%TA.AperFunction,SMDPad,CuDef*%
%ADD26R,1.000000X1.150000*%
%TD*%
%TA.AperFunction,ViaPad*%
%ADD27C,0.800000*%
%TD*%
%TA.AperFunction,Conductor*%
%ADD28C,0.250000*%
%TD*%
%TA.AperFunction,Conductor*%
%ADD29C,0.500000*%
%TD*%
G04 APERTURE END LIST*
D10*
%TO.P,U1,1,GND*%
%TO.N,GND*%
X79234000Y-75794000D03*
%TO.P,U1,2,VO*%
%TO.N,+3V3*%
X81534000Y-75794000D03*
D11*
X81534000Y-69494000D03*
D10*
%TO.P,U1,3,VI*%
%TO.N,VIN*%
X83834000Y-75794000D03*
%TD*%
D12*
%TO.P,Y2,1,1*%
%TO.N,Net-(U2-Pad2)*%
X61468000Y-73914000D03*
%TO.P,Y2,2,2*%
%TO.N,Net-(U2-Pad3)*%
X61468000Y-69034000D03*
%TD*%
D13*
%TO.P,J4,1,In*%
%TO.N,Net-(J4-Pad1)*%
X82690000Y-58500000D03*
%TO.P,J4,2,Ext*%
%TO.N,GND*%
X86940000Y-58500000D03*
X78440000Y-58500000D03*
%TD*%
D14*
%TO.P,R10,1*%
%TO.N,+3V3*%
X51640000Y-72590000D03*
%TO.P,R10,2*%
%TO.N,Net-(Y1-Pad4)*%
X51640000Y-70590000D03*
%TD*%
D15*
%TO.P,R7,1*%
%TO.N,Net-(U2-Pad3)*%
X53780000Y-66440000D03*
%TO.P,R7,2*%
%TO.N,Net-(Y1-Pad1)*%
X53780000Y-68440000D03*
%TD*%
D16*
%TO.P,C6,1*%
%TO.N,GND*%
X51660000Y-66432500D03*
%TO.P,C6,2*%
%TO.N,Net-(Y1-Pad4)*%
X51660000Y-68507500D03*
%TD*%
D17*
%TO.P,R8,1*%
%TO.N,Net-(C5-Pad1)*%
X55680000Y-76480000D03*
%TO.P,R8,2*%
%TO.N,Net-(Y1-Pad3)*%
X57680000Y-76480000D03*
%TD*%
%TO.P,R4,1*%
%TO.N,Net-(Q2-Pad2)*%
X74946000Y-67564000D03*
%TO.P,R4,2*%
%TO.N,+3V3*%
X76946000Y-67564000D03*
%TD*%
D18*
%TO.P,Q2,1,G*%
%TO.N,+3V3*%
X77150000Y-69928500D03*
%TO.P,Q2,2,S*%
%TO.N,Net-(Q2-Pad2)*%
X75250000Y-69928500D03*
%TO.P,Q2,3,D*%
%TO.N,SDA*%
X76200000Y-71803500D03*
%TD*%
D19*
%TO.P,C4,1*%
%TO.N,GND*%
X69590000Y-73457500D03*
%TO.P,C4,2*%
%TO.N,+3V3*%
X69590000Y-71382500D03*
%TD*%
D20*
%TO.P,C8,2*%
%TO.N,CLK1*%
X56409500Y-81026000D03*
%TO.P,C8,1*%
%TO.N,Net-(J3-Pad1)*%
X54334500Y-81026000D03*
%TD*%
%TO.P,C1,1*%
%TO.N,GND*%
X82020500Y-78486000D03*
%TO.P,C1,2*%
%TO.N,VIN*%
X84095500Y-78486000D03*
%TD*%
D21*
%TO.P,C3,1*%
%TO.N,GND*%
X82571500Y-67056000D03*
%TO.P,C3,2*%
%TO.N,+3V3*%
X80496500Y-67056000D03*
%TD*%
D13*
%TO.P,J3,1,In*%
%TO.N,Net-(J3-Pad1)*%
X68834000Y-58547000D03*
%TO.P,J3,2,Ext*%
%TO.N,GND*%
X73084000Y-58547000D03*
X64584000Y-58547000D03*
%TD*%
D17*
%TO.P,R3,1*%
%TO.N,Net-(Q1-Pad2)*%
X70882000Y-67564000D03*
%TO.P,R3,2*%
%TO.N,+3V3*%
X72882000Y-67564000D03*
%TD*%
D21*
%TO.P,C2,1*%
%TO.N,Net-(J4-Pad1)*%
X82571500Y-82296000D03*
%TO.P,C2,2*%
%TO.N,CLK2*%
X80496500Y-82296000D03*
%TD*%
D22*
%TO.P,U2,1,VDD*%
%TO.N,+3V3*%
X67548000Y-69428000D03*
%TO.P,U2,2,XA*%
%TO.N,Net-(U2-Pad2)*%
X67048000Y-69428000D03*
%TO.P,U2,3,XB*%
%TO.N,Net-(U2-Pad3)*%
X66548000Y-69428000D03*
%TO.P,U2,4,SCL*%
%TO.N,Net-(Q1-Pad2)*%
X66048000Y-69428000D03*
%TO.P,U2,5,SDA*%
%TO.N,Net-(Q2-Pad2)*%
X65548000Y-69428000D03*
%TO.P,U2,6,CLK2*%
%TO.N,CLK2*%
X65548000Y-73828000D03*
%TO.P,U2,7,VDDO*%
%TO.N,+3V3*%
X66048000Y-73828000D03*
%TO.P,U2,8,GND*%
%TO.N,GND*%
X66548000Y-73828000D03*
%TO.P,U2,9,CLK1*%
%TO.N,CLK1*%
X67048000Y-73828000D03*
%TO.P,U2,10,CLK0*%
%TO.N,CLK0*%
X67548000Y-73828000D03*
%TD*%
D20*
%TO.P,C5,1*%
%TO.N,Net-(C5-Pad1)*%
X56802500Y-78670000D03*
%TO.P,C5,2*%
%TO.N,Net-(U2-Pad2)*%
X58877500Y-78670000D03*
%TD*%
D13*
%TO.P,J2,1,In*%
%TO.N,Net-(J2-Pad1)*%
X54410000Y-58510000D03*
%TO.P,J2,2,Ext*%
%TO.N,GND*%
X58660000Y-58510000D03*
X50160000Y-58510000D03*
%TD*%
D14*
%TO.P,R1,1*%
%TO.N,SCL*%
X73152000Y-76168000D03*
%TO.P,R1,2*%
%TO.N,VIN*%
X73152000Y-74168000D03*
%TD*%
D23*
%TO.P,Y1,1,1*%
%TO.N,Net-(Y1-Pad1)*%
X54230000Y-73250000D03*
%TO.P,Y1,2,2*%
%TO.N,GND*%
X57130000Y-73250000D03*
%TO.P,Y1,3,3*%
%TO.N,Net-(Y1-Pad3)*%
X57130000Y-70950000D03*
%TO.P,Y1,4,4*%
%TO.N,Net-(Y1-Pad4)*%
X54230000Y-70950000D03*
%TD*%
D19*
%TO.P,C7,1*%
%TO.N,Net-(J2-Pad1)*%
X58674000Y-82825500D03*
%TO.P,C7,2*%
%TO.N,CLK0*%
X58674000Y-80750500D03*
%TD*%
D24*
%TO.P,J1,1,Pin_1*%
%TO.N,VIN*%
X77419200Y-79603600D03*
D25*
%TO.P,J1,2,Pin_2*%
%TO.N,GND*%
X74879200Y-79603600D03*
%TO.P,J1,3,Pin_3*%
%TO.N,SDA*%
X72339200Y-79603600D03*
%TO.P,J1,4,Pin_4*%
%TO.N,SCL*%
X69799200Y-79603600D03*
%TO.P,J1,5,Pin_5*%
%TO.N,CLK2*%
X67259200Y-79603600D03*
%TO.P,J1,6,Pin_6*%
%TO.N,CLK1*%
X64719200Y-79603600D03*
%TO.P,J1,7,Pin_7*%
%TO.N,CLK0*%
X62179200Y-79603600D03*
%TD*%
D14*
%TO.P,R6,1*%
%TO.N,+3V3*%
X51520000Y-76610000D03*
%TO.P,R6,2*%
%TO.N,Net-(Y1-Pad1)*%
X51520000Y-74610000D03*
%TD*%
D18*
%TO.P,Q1,1,G*%
%TO.N,+3V3*%
X73340000Y-69928500D03*
%TO.P,Q1,2,S*%
%TO.N,Net-(Q1-Pad2)*%
X71440000Y-69928500D03*
%TO.P,Q1,3,D*%
%TO.N,SCL*%
X72390000Y-71803500D03*
%TD*%
D17*
%TO.P,R9,1*%
%TO.N,GND*%
X51620000Y-78660000D03*
%TO.P,R9,2*%
%TO.N,Net-(C5-Pad1)*%
X53620000Y-78660000D03*
%TD*%
D26*
%TO.P,Y3,1,1*%
%TO.N,Net-(Y1-Pad1)*%
X56110000Y-66515000D03*
%TO.P,Y3,2,2*%
%TO.N,GND*%
X56110000Y-68265000D03*
%TO.P,Y3,3,3*%
%TO.N,Net-(Y1-Pad3)*%
X57510000Y-68265000D03*
%TO.P,Y3,4,4*%
%TO.N,Net-(Y1-Pad4)*%
X57510000Y-66515000D03*
%TD*%
D14*
%TO.P,R2,1*%
%TO.N,SDA*%
X75184000Y-76168000D03*
%TO.P,R2,2*%
%TO.N,VIN*%
X75184000Y-74168000D03*
%TD*%
D27*
%TO.N,GND*%
X50376299Y-79671701D03*
X50292000Y-78232000D03*
X50890520Y-67373173D03*
X51760000Y-57670000D03*
X65960000Y-75340000D03*
X62839600Y-59588400D03*
X51880000Y-60160000D03*
X80520000Y-78210000D03*
X80580000Y-74080000D03*
X67010000Y-72460000D03*
X76450000Y-59570000D03*
X74942700Y-59321700D03*
X56250000Y-74890000D03*
X60530000Y-59710000D03*
X68350000Y-72140000D03*
X85310000Y-57480000D03*
X69910000Y-76080000D03*
X82245200Y-80010000D03*
X78820000Y-74120000D03*
X60490000Y-58250000D03*
X70903500Y-73250000D03*
X52634062Y-65602844D03*
X62839600Y-57912000D03*
X83270000Y-65860000D03*
X74930000Y-57658000D03*
X57965500Y-74970000D03*
X76400000Y-57470000D03*
X56775500Y-69450498D03*
X81422014Y-65967901D03*
X85140000Y-59690000D03*
%TO.N,CLK1*%
X65960000Y-76430000D03*
%TO.N,CLK2*%
X65910000Y-77610000D03*
%TD*%
D28*
%TO.N,GND*%
X51388000Y-78660000D02*
X50376299Y-79671701D01*
X51620000Y-78660000D02*
X51388000Y-78660000D01*
X50720000Y-78660000D02*
X50292000Y-78232000D01*
X51620000Y-78660000D02*
X50720000Y-78660000D01*
D29*
X81422014Y-65967901D02*
X81483401Y-65967901D01*
X81483401Y-65967901D02*
X82571500Y-67056000D01*
D28*
%TO.N,Net-(J4-Pad1)*%
X83566000Y-63636000D02*
X83566000Y-59376000D01*
X83566000Y-59376000D02*
X82690000Y-58500000D01*
X85370000Y-79950000D02*
X85370000Y-65440000D01*
X85370000Y-65440000D02*
X83566000Y-63636000D01*
X83024000Y-82296000D02*
X85370000Y-79950000D01*
X82571500Y-82296000D02*
X83024000Y-82296000D01*
D29*
%TO.N,GND*%
X50230000Y-58510000D02*
X50160000Y-58510000D01*
X51880000Y-60160000D02*
X50230000Y-58510000D01*
X51760000Y-57670000D02*
X50920000Y-58510000D01*
X50920000Y-58510000D02*
X50160000Y-58510000D01*
X85140000Y-59690000D02*
X86330000Y-58500000D01*
X86330000Y-58500000D02*
X86940000Y-58500000D01*
X85310000Y-57480000D02*
X86330000Y-58500000D01*
X77520000Y-58500000D02*
X78440000Y-58500000D01*
X77410000Y-57470000D02*
X78440000Y-58500000D01*
X76400000Y-57470000D02*
X77410000Y-57470000D01*
X76450000Y-59570000D02*
X77520000Y-58500000D01*
D28*
%TO.N,Net-(J2-Pad1)*%
X58398500Y-82550000D02*
X58674000Y-82825500D01*
X48800000Y-65550000D02*
X48800000Y-79990000D01*
X51360000Y-82550000D02*
X58398500Y-82550000D01*
X52374000Y-61976000D02*
X48800000Y-65550000D01*
X53974000Y-61976000D02*
X52374000Y-61976000D01*
X54410000Y-61540000D02*
X53974000Y-61976000D01*
X48800000Y-79990000D02*
X51360000Y-82550000D01*
X54410000Y-58510000D02*
X54410000Y-61540000D01*
%TO.N,Net-(J3-Pad1)*%
X54080500Y-81280000D02*
X54334500Y-81026000D01*
X50960000Y-81280000D02*
X54080500Y-81280000D01*
X67056000Y-63246000D02*
X51924000Y-63246000D01*
X49540000Y-65630000D02*
X49540000Y-79860000D01*
X68834000Y-58547000D02*
X68834000Y-61468000D01*
X68834000Y-61468000D02*
X67056000Y-63246000D01*
X51924000Y-63246000D02*
X49540000Y-65630000D01*
X49540000Y-79860000D02*
X50960000Y-81280000D01*
D29*
%TO.N,GND*%
X59860000Y-59710000D02*
X58660000Y-58510000D01*
X60530000Y-59710000D02*
X59860000Y-59710000D01*
X58920000Y-58250000D02*
X58660000Y-58510000D01*
X60490000Y-58250000D02*
X58920000Y-58250000D01*
D28*
%TO.N,+3V3*%
X50150000Y-71460000D02*
X50150000Y-65960000D01*
X50150000Y-65960000D02*
X51530000Y-64580000D01*
X51640000Y-72590000D02*
X51280000Y-72590000D01*
X51530000Y-64580000D02*
X60897000Y-64580000D01*
X51280000Y-72590000D02*
X50150000Y-71460000D01*
%TO.N,Net-(C5-Pad1)*%
X55771250Y-77638750D02*
X56802500Y-78670000D01*
X54641250Y-77638750D02*
X55771250Y-77638750D01*
X55680000Y-77547500D02*
X55771250Y-77638750D01*
X53620000Y-78660000D02*
X54641250Y-77638750D01*
%TO.N,Net-(Y1-Pad1)*%
X51520000Y-74610000D02*
X52880000Y-73250000D01*
X52880000Y-73250000D02*
X54230000Y-73250000D01*
%TO.N,+3V3*%
X51640000Y-72590000D02*
X50430000Y-73800000D01*
X50430000Y-73800000D02*
X50430000Y-75520000D01*
X50430000Y-75520000D02*
X51520000Y-76610000D01*
%TO.N,Net-(Y1-Pad4)*%
X52000000Y-70950000D02*
X51640000Y-70590000D01*
X54230000Y-70950000D02*
X52000000Y-70950000D01*
X51660000Y-70570000D02*
X51640000Y-70590000D01*
X51660000Y-68507500D02*
X51660000Y-70570000D01*
%TO.N,GND*%
X51660000Y-66603693D02*
X50890520Y-67373173D01*
X51660000Y-66432500D02*
X51660000Y-66603693D01*
X51804406Y-66432500D02*
X51660000Y-66432500D01*
X52634062Y-65602844D02*
X51804406Y-66432500D01*
%TO.N,Net-(Y1-Pad4)*%
X57510000Y-65720000D02*
X57510000Y-66515000D01*
X55430000Y-65500000D02*
X57290000Y-65500000D01*
X55010000Y-65920000D02*
X55430000Y-65500000D01*
X55010000Y-66830000D02*
X55010000Y-65920000D01*
X54410000Y-67430000D02*
X55010000Y-66830000D01*
X52550000Y-67430000D02*
X54410000Y-67430000D01*
X51660000Y-68320000D02*
X52550000Y-67430000D01*
X51660000Y-68507500D02*
X51660000Y-68320000D01*
X57290000Y-65500000D02*
X57510000Y-65720000D01*
%TO.N,Net-(U2-Pad3)*%
X59020000Y-65030000D02*
X61468000Y-67478000D01*
X55190000Y-65030000D02*
X59020000Y-65030000D01*
X61468000Y-67478000D02*
X61468000Y-69034000D01*
X53780000Y-66440000D02*
X55190000Y-65030000D01*
%TO.N,+3V3*%
X62103000Y-65786000D02*
X76073000Y-65786000D01*
X76073000Y-65786000D02*
X76946000Y-66659000D01*
X76946000Y-66659000D02*
X76946000Y-67564000D01*
X60897000Y-64580000D02*
X62103000Y-65786000D01*
%TO.N,Net-(Y1-Pad1)*%
X55180000Y-68440000D02*
X55285000Y-68545000D01*
X53780000Y-68440000D02*
X55180000Y-68440000D01*
X55285000Y-67235000D02*
X55285000Y-68545000D01*
X55285000Y-68545000D02*
X55285000Y-69305000D01*
X54710000Y-73250000D02*
X54230000Y-73250000D01*
X55670000Y-72290000D02*
X54710000Y-73250000D01*
X55670000Y-69690000D02*
X55670000Y-72290000D01*
X55285000Y-69305000D02*
X55670000Y-69690000D01*
X56005000Y-66515000D02*
X55285000Y-67235000D01*
X56110000Y-66515000D02*
X56005000Y-66515000D01*
%TO.N,Net-(Y1-Pad3)*%
X57510000Y-70570000D02*
X57130000Y-70950000D01*
X57510000Y-68265000D02*
X57510000Y-70570000D01*
%TO.N,Net-(Y1-Pad1)*%
X56110000Y-66515000D02*
X56080000Y-66485000D01*
%TO.N,GND*%
X56110000Y-68784998D02*
X56110000Y-68265000D01*
X56775500Y-69450498D02*
X56110000Y-68784998D01*
%TO.N,Net-(U2-Pad2)*%
X61468000Y-75692000D02*
X58877500Y-78282500D01*
X58877500Y-78282500D02*
X58877500Y-78670000D01*
%TO.N,Net-(C5-Pad1)*%
X55680000Y-76480000D02*
X55680000Y-77547500D01*
%TO.N,Net-(U2-Pad2)*%
X61468000Y-73914000D02*
X61468000Y-75692000D01*
%TO.N,Net-(Y1-Pad3)*%
X58720000Y-72290000D02*
X57380000Y-70950000D01*
X58720000Y-75440000D02*
X58720000Y-72290000D01*
X57380000Y-70950000D02*
X57130000Y-70950000D01*
X57680000Y-76480000D02*
X58720000Y-75440000D01*
%TO.N,GND*%
X57130000Y-74134500D02*
X57130000Y-73250000D01*
X56250000Y-74130000D02*
X57130000Y-73250000D01*
X57965500Y-74970000D02*
X57130000Y-74134500D01*
X56250000Y-74890000D02*
X56250000Y-74130000D01*
%TO.N,CLK1*%
X63330000Y-81770000D02*
X64719200Y-80380800D01*
X57590000Y-81770000D02*
X63330000Y-81770000D01*
X56846000Y-81026000D02*
X57590000Y-81770000D01*
X56409500Y-81026000D02*
X56846000Y-81026000D01*
X64719200Y-80380800D02*
X64719200Y-79603600D01*
%TO.N,CLK0*%
X59820900Y-79603600D02*
X58674000Y-80750500D01*
X62179200Y-79603600D02*
X59820900Y-79603600D01*
%TO.N,CLK2*%
X69951600Y-82296000D02*
X67259200Y-79603600D01*
X80496500Y-82296000D02*
X69951600Y-82296000D01*
%TO.N,Net-(Q2-Pad2)*%
X70342000Y-66310000D02*
X73692000Y-66310000D01*
X73692000Y-66310000D02*
X74946000Y-67564000D01*
X68834000Y-67818000D02*
X70342000Y-66310000D01*
X66040000Y-67818000D02*
X68834000Y-67818000D01*
X65548000Y-68310000D02*
X66040000Y-67818000D01*
X65548000Y-69428000D02*
X65548000Y-68310000D01*
%TO.N,+3V3*%
X67062196Y-71382500D02*
X67052348Y-71392348D01*
X69590000Y-71382500D02*
X67062196Y-71382500D01*
X67052348Y-71392348D02*
X67548000Y-70896695D01*
X66048000Y-72396695D02*
X67052348Y-71392348D01*
X67548000Y-70178000D02*
X67548000Y-69428000D01*
X67548000Y-70850000D02*
X67548000Y-70178000D01*
D29*
%TO.N,GND*%
X74930000Y-57658000D02*
X73973000Y-57658000D01*
X79234000Y-75426000D02*
X79234000Y-75794000D01*
X82020500Y-79785300D02*
X82245200Y-80010000D01*
D28*
X69590000Y-73457500D02*
X69590000Y-73380000D01*
D29*
X79234000Y-74534000D02*
X78820000Y-74120000D01*
D28*
X69590000Y-73457500D02*
X70696000Y-73457500D01*
D29*
X74168000Y-58547000D02*
X73084000Y-58547000D01*
D28*
X67010000Y-72460000D02*
X66548000Y-72922000D01*
X66548000Y-72922000D02*
X66548000Y-73828000D01*
D29*
X63949000Y-57912000D02*
X64584000Y-58547000D01*
D28*
X69590000Y-75760000D02*
X69590000Y-73457500D01*
D29*
X82571500Y-67056000D02*
X82571500Y-66558500D01*
D28*
X69590000Y-73380000D02*
X68350000Y-72140000D01*
D29*
X80796000Y-78486000D02*
X80520000Y-78210000D01*
X80580000Y-74080000D02*
X79234000Y-75426000D01*
D28*
X70696000Y-73457500D02*
X70903500Y-73250000D01*
D29*
X73973000Y-57658000D02*
X73084000Y-58547000D01*
D28*
X69910000Y-76080000D02*
X69590000Y-75760000D01*
D29*
X74942700Y-59321700D02*
X74168000Y-58547000D01*
D28*
X66548000Y-73828000D02*
X66548000Y-74752000D01*
D29*
X82571500Y-66558500D02*
X83270000Y-65860000D01*
X63881000Y-58547000D02*
X64584000Y-58547000D01*
X82020500Y-78486000D02*
X82020500Y-79785300D01*
X62839600Y-57912000D02*
X63949000Y-57912000D01*
X82020500Y-78486000D02*
X80796000Y-78486000D01*
X62839600Y-59588400D02*
X63881000Y-58547000D01*
D28*
X66548000Y-74752000D02*
X65960000Y-75340000D01*
D29*
X79234000Y-75794000D02*
X79234000Y-74534000D01*
%TO.N,VIN*%
X73152000Y-74168000D02*
X75184000Y-74168000D01*
X75184000Y-74168000D02*
X76200000Y-74168000D01*
X83834000Y-75794000D02*
X83834000Y-78224500D01*
X76962000Y-77598000D02*
X77249000Y-77311000D01*
X82829000Y-77311000D02*
X83834000Y-76306000D01*
X76962000Y-77598000D02*
X76962000Y-79146400D01*
X76200000Y-74168000D02*
X76962000Y-74930000D01*
X77249000Y-77311000D02*
X82829000Y-77311000D01*
X83834000Y-78224500D02*
X84095500Y-78486000D01*
X76962000Y-79146400D02*
X77419200Y-79603600D01*
X76962000Y-74930000D02*
X76962000Y-77598000D01*
X83834000Y-76306000D02*
X83834000Y-75794000D01*
D28*
%TO.N,+3V3*%
X73340000Y-70800000D02*
X73914000Y-71374000D01*
X66048000Y-73828000D02*
X66048000Y-72396695D01*
X76659251Y-69928500D02*
X77150000Y-69928500D01*
X73340000Y-69928500D02*
X72849251Y-69928500D01*
X73340000Y-69928500D02*
X73340000Y-70800000D01*
X72882000Y-67564000D02*
X72882000Y-69470500D01*
D29*
X81534000Y-75794000D02*
X81534000Y-69494000D01*
X80496500Y-68456500D02*
X81534000Y-69494000D01*
D28*
X77150000Y-69928500D02*
X77150000Y-67768000D01*
X75213751Y-71374000D02*
X76659251Y-69928500D01*
X71395251Y-71382500D02*
X69590000Y-71382500D01*
X67548000Y-70896695D02*
X67548000Y-70850000D01*
X77150000Y-67768000D02*
X76946000Y-67564000D01*
D29*
X80496500Y-67056000D02*
X80496500Y-68456500D01*
D28*
X73914000Y-71374000D02*
X75213751Y-71374000D01*
X77584500Y-69494000D02*
X81534000Y-69494000D01*
X72882000Y-69470500D02*
X73340000Y-69928500D01*
X77150000Y-69928500D02*
X77584500Y-69494000D01*
X72849251Y-69928500D02*
X71395251Y-71382500D01*
%TO.N,CLK0*%
X67548000Y-77362000D02*
X66560000Y-78350000D01*
X63737600Y-78350000D02*
X62484000Y-79603600D01*
X62484000Y-79603600D02*
X62179200Y-79603600D01*
X66560000Y-78350000D02*
X63737600Y-78350000D01*
X67548000Y-73828000D02*
X67548000Y-77362000D01*
%TO.N,CLK1*%
X66510000Y-76430000D02*
X67048000Y-75892000D01*
X67048000Y-75892000D02*
X67048000Y-73828000D01*
X65960000Y-76430000D02*
X66510000Y-76430000D01*
%TO.N,CLK2*%
X65050000Y-74326000D02*
X65548000Y-73828000D01*
X65050000Y-77230000D02*
X65050000Y-74326000D01*
X65910000Y-77610000D02*
X65430000Y-77610000D01*
X65430000Y-77610000D02*
X65050000Y-77230000D01*
D29*
%TO.N,SCL*%
X72980800Y-76168000D02*
X73152000Y-76168000D01*
X69799200Y-79349600D02*
X72980800Y-76168000D01*
X69799200Y-79603600D02*
X69799200Y-79349600D01*
D28*
X72390000Y-72136000D02*
X71628000Y-72898000D01*
X71628000Y-72898000D02*
X71628000Y-75692000D01*
X72104000Y-76168000D02*
X73152000Y-76168000D01*
X71628000Y-75692000D02*
X72104000Y-76168000D01*
X72390000Y-71803500D02*
X72390000Y-72136000D01*
D29*
%TO.N,SDA*%
X75184000Y-76403200D02*
X75184000Y-76168000D01*
D28*
X72390000Y-75184000D02*
X74200000Y-75184000D01*
X74930000Y-72898000D02*
X72390000Y-72898000D01*
X76200000Y-71803500D02*
X76024500Y-71803500D01*
X74200000Y-75184000D02*
X75184000Y-76168000D01*
X72127000Y-73161000D02*
X72127000Y-74921000D01*
X76024500Y-71803500D02*
X74930000Y-72898000D01*
X72127000Y-74921000D02*
X72390000Y-75184000D01*
D29*
X72339200Y-79248000D02*
X75184000Y-76403200D01*
X72339200Y-79603600D02*
X72339200Y-79248000D01*
D28*
X72390000Y-72898000D02*
X72127000Y-73161000D01*
%TO.N,Net-(Q1-Pad2)*%
X70882000Y-69370500D02*
X71440000Y-69928500D01*
X70882000Y-67564000D02*
X70882000Y-69370500D01*
X66048000Y-68572000D02*
X66048000Y-69428000D01*
X66294000Y-68326000D02*
X66048000Y-68572000D01*
X70120000Y-68326000D02*
X70882000Y-67564000D01*
X66294000Y-68326000D02*
X70120000Y-68326000D01*
%TO.N,Net-(Q2-Pad2)*%
X74946000Y-67564000D02*
X74946000Y-69624500D01*
X74946000Y-69624500D02*
X75250000Y-69928500D01*
%TO.N,Net-(U2-Pad2)*%
X67048000Y-69428000D02*
X67048000Y-70713604D01*
X63847604Y-73914000D02*
X61468000Y-73914000D01*
X67048000Y-70713604D02*
X63847604Y-73914000D01*
%TO.N,Net-(U2-Pad3)*%
X66548000Y-70428000D02*
X66110000Y-70866000D01*
X66548000Y-69428000D02*
X66548000Y-70428000D01*
X66110000Y-70866000D02*
X63300000Y-70866000D01*
X63300000Y-70866000D02*
X61468000Y-69034000D01*
%TD*%
M02*
