M48
; DRILL file {KiCad (6.0.11)} date Sun Nov  5 19:40:27 2023
; FORMAT={-:-/ absolute / inch / decimal}
; #@! TF.CreationDate,2023-11-05T19:40:27-06:00
; #@! TF.GenerationSoftware,Kicad,Pcbnew,(6.0.11)
; #@! TF.FileFunction,Plated,1,2,PTH
FMAT,2
INCH
; #@! TA.AperFunction,Plated,PTH,ViaDrill
T1C0.0157
; #@! TA.AperFunction,Plated,PTH,ComponentDrill
T2C0.0315
; #@! TA.AperFunction,Plated,PTH,ComponentDrill
T3C0.0394
%
G90
G05
T1
X1.98Y-3.08
X1.9833Y-3.1367
X2.0036Y-2.6525
X2.0378Y-2.2705
X2.0425Y-2.3685
X2.0722Y-2.5828
X2.2146Y-2.9484
X2.2353Y-2.7343
X2.2821Y-2.9516
X2.3815Y-2.2933
X2.3831Y-2.3508
X2.474Y-2.28
X2.474Y-2.346
X2.5949Y-3.0555
X2.5969Y-2.9661
X2.5969Y-3.0091
X2.6382Y-2.8528
X2.6909Y-2.8402
X2.7524Y-2.9953
X2.7915Y-2.8839
X2.95Y-2.27
X2.9505Y-2.3355
X3.0079Y-2.2626
X3.0098Y-2.3453
X3.1031Y-2.9181
X3.1701Y-3.0791
X3.1724Y-2.9165
X3.2056Y-2.5972
X3.238Y-3.15
X3.2783Y-2.5929
X3.352Y-2.35
X3.3587Y-2.263
T2
X2.42Y-2.7179
X2.42Y-2.91
T3
X2.448Y-3.134
X2.548Y-3.134
X2.648Y-3.134
X2.748Y-3.134
X2.848Y-3.134
X2.948Y-3.134
X3.048Y-3.134
T0
M30
