%TF.GenerationSoftware,KiCad,Pcbnew,(6.0.11)*%
%TF.CreationDate,2023-11-05T19:40:27-06:00*%
%TF.ProjectId,PLLBoard,504c4c42-6f61-4726-942e-6b696361645f,rev?*%
%TF.SameCoordinates,Original*%
%TF.FileFunction,Copper,L2,Bot*%
%TF.FilePolarity,Positive*%
%FSLAX46Y46*%
G04 Gerber Fmt 4.6, Leading zero omitted, Abs format (unit mm)*
G04 Created by KiCad (PCBNEW (6.0.11)) date 2023-11-05 19:40:27*
%MOMM*%
%LPD*%
G01*
G04 APERTURE LIST*
%TA.AperFunction,ComponentPad*%
%ADD10C,1.500000*%
%TD*%
%TA.AperFunction,SMDPad,CuDef*%
%ADD11R,1.500000X5.080000*%
%TD*%
%TA.AperFunction,ComponentPad*%
%ADD12R,1.700000X1.700000*%
%TD*%
%TA.AperFunction,ComponentPad*%
%ADD13O,1.700000X1.700000*%
%TD*%
%TA.AperFunction,ViaPad*%
%ADD14C,0.800000*%
%TD*%
%TA.AperFunction,Conductor*%
%ADD15C,0.250000*%
%TD*%
G04 APERTURE END LIST*
D10*
%TO.P,Y2,1,1*%
%TO.N,Net-(U2-Pad2)*%
X61468000Y-73914000D03*
%TO.P,Y2,2,2*%
%TO.N,Net-(U2-Pad3)*%
X61468000Y-69034000D03*
%TD*%
D11*
%TO.P,J4,2,Ext*%
%TO.N,GND*%
X78440000Y-58500000D03*
X86940000Y-58500000D03*
%TD*%
%TO.P,J3,2,Ext*%
%TO.N,GND*%
X64584000Y-58547000D03*
X73084000Y-58547000D03*
%TD*%
%TO.P,J2,2,Ext*%
%TO.N,GND*%
X50160000Y-58510000D03*
X58660000Y-58510000D03*
%TD*%
D12*
%TO.P,J1,1,Pin_1*%
%TO.N,VIN*%
X77419200Y-79603600D03*
D13*
%TO.P,J1,2,Pin_2*%
%TO.N,GND*%
X74879200Y-79603600D03*
%TO.P,J1,3,Pin_3*%
%TO.N,SDA*%
X72339200Y-79603600D03*
%TO.P,J1,4,Pin_4*%
%TO.N,SCL*%
X69799200Y-79603600D03*
%TO.P,J1,5,Pin_5*%
%TO.N,CLK2*%
X67259200Y-79603600D03*
%TO.P,J1,6,Pin_6*%
%TO.N,CLK1*%
X64719200Y-79603600D03*
%TO.P,J1,7,Pin_7*%
%TO.N,CLK0*%
X62179200Y-79603600D03*
%TD*%
D14*
%TO.N,GND*%
X50376299Y-79671701D03*
X50292000Y-78232000D03*
X50890520Y-67373173D03*
X51760000Y-57670000D03*
X65960000Y-75340000D03*
X62839600Y-59588400D03*
X51880000Y-60160000D03*
X80520000Y-78210000D03*
X80580000Y-74080000D03*
X67010000Y-72460000D03*
X76450000Y-59570000D03*
X74942700Y-59321700D03*
X56250000Y-74890000D03*
X60530000Y-59710000D03*
X68350000Y-72140000D03*
X85310000Y-57480000D03*
X69910000Y-76080000D03*
X82245200Y-80010000D03*
X78820000Y-74120000D03*
X60490000Y-58250000D03*
X70903500Y-73250000D03*
X52634062Y-65602844D03*
X62839600Y-57912000D03*
X83270000Y-65860000D03*
X74930000Y-57658000D03*
X57965500Y-74970000D03*
X76400000Y-57470000D03*
X56775500Y-69450498D03*
X81422014Y-65967901D03*
X85140000Y-59690000D03*
%TO.N,CLK1*%
X65960000Y-76430000D03*
%TO.N,CLK2*%
X65910000Y-77610000D03*
%TD*%
D15*
%TO.N,CLK1*%
X65960000Y-76430000D02*
X65650000Y-76430000D01*
X65650000Y-76430000D02*
X64719200Y-77360800D01*
X64719200Y-77360800D02*
X64719200Y-79603600D01*
%TO.N,CLK2*%
X65910000Y-77610000D02*
X67259200Y-78959200D01*
X67259200Y-78959200D02*
X67259200Y-79603600D01*
%TD*%
%TA.AperFunction,Conductor*%
%TO.N,GND*%
G36*
X48844121Y-56408502D02*
G01*
X48890614Y-56462158D01*
X48902000Y-56514500D01*
X48902000Y-58237885D01*
X48906475Y-58253124D01*
X48907865Y-58254329D01*
X48915548Y-58256000D01*
X51399884Y-58256000D01*
X51415123Y-58251525D01*
X51416328Y-58250135D01*
X51417999Y-58242452D01*
X51417999Y-56514500D01*
X51438001Y-56446379D01*
X51491657Y-56399886D01*
X51543999Y-56388500D01*
X57276000Y-56388500D01*
X57344121Y-56408502D01*
X57390614Y-56462158D01*
X57402000Y-56514500D01*
X57402000Y-58237885D01*
X57406475Y-58253124D01*
X57407865Y-58254329D01*
X57415548Y-58256000D01*
X59899884Y-58256000D01*
X59915123Y-58251525D01*
X59916328Y-58250135D01*
X59917999Y-58242452D01*
X59917999Y-56514500D01*
X59938001Y-56446379D01*
X59991657Y-56399886D01*
X60043999Y-56388500D01*
X63200000Y-56388500D01*
X63268121Y-56408502D01*
X63314614Y-56462158D01*
X63326000Y-56514500D01*
X63326000Y-58274885D01*
X63330475Y-58290124D01*
X63331865Y-58291329D01*
X63339548Y-58293000D01*
X65823884Y-58293000D01*
X65839123Y-58288525D01*
X65840328Y-58287135D01*
X65841999Y-58279452D01*
X65841999Y-56514500D01*
X65862001Y-56446379D01*
X65915657Y-56399886D01*
X65967999Y-56388500D01*
X71700000Y-56388500D01*
X71768121Y-56408502D01*
X71814614Y-56462158D01*
X71826000Y-56514500D01*
X71826000Y-58274885D01*
X71830475Y-58290124D01*
X71831865Y-58291329D01*
X71839548Y-58293000D01*
X74323884Y-58293000D01*
X74339123Y-58288525D01*
X74340328Y-58287135D01*
X74341999Y-58279452D01*
X74341999Y-56514500D01*
X74362001Y-56446379D01*
X74415657Y-56399886D01*
X74467999Y-56388500D01*
X77056000Y-56388500D01*
X77124121Y-56408502D01*
X77170614Y-56462158D01*
X77182000Y-56514500D01*
X77182000Y-58227885D01*
X77186475Y-58243124D01*
X77187865Y-58244329D01*
X77195548Y-58246000D01*
X79679884Y-58246000D01*
X79695123Y-58241525D01*
X79696328Y-58240135D01*
X79697999Y-58232452D01*
X79697999Y-56514500D01*
X79718001Y-56446379D01*
X79771657Y-56399886D01*
X79823999Y-56388500D01*
X85556000Y-56388500D01*
X85624121Y-56408502D01*
X85670614Y-56462158D01*
X85682000Y-56514500D01*
X85682000Y-58227885D01*
X85686475Y-58243124D01*
X85687865Y-58244329D01*
X85695548Y-58246000D01*
X87068000Y-58246000D01*
X87136121Y-58266002D01*
X87182614Y-58319658D01*
X87194000Y-58372000D01*
X87194000Y-61529884D01*
X87198475Y-61545123D01*
X87199865Y-61546328D01*
X87207548Y-61547999D01*
X87734669Y-61547999D01*
X87741490Y-61547629D01*
X87792352Y-61542105D01*
X87807604Y-61538479D01*
X87928054Y-61493324D01*
X87943649Y-61484786D01*
X88045724Y-61408285D01*
X88058285Y-61395724D01*
X88134786Y-61293649D01*
X88143324Y-61278054D01*
X88147518Y-61266867D01*
X88190160Y-61210102D01*
X88256722Y-61185403D01*
X88326071Y-61200611D01*
X88376189Y-61250897D01*
X88391500Y-61311097D01*
X88391500Y-83185500D01*
X88371498Y-83253621D01*
X88317842Y-83300114D01*
X88265500Y-83311500D01*
X48386500Y-83311500D01*
X48318379Y-83291498D01*
X48271886Y-83237842D01*
X48260500Y-83185500D01*
X48260500Y-79570295D01*
X60816451Y-79570295D01*
X60829310Y-79793315D01*
X60830447Y-79798361D01*
X60830448Y-79798367D01*
X60851475Y-79891669D01*
X60878422Y-80011239D01*
X60962466Y-80218216D01*
X61014142Y-80302544D01*
X61076491Y-80404288D01*
X61079187Y-80408688D01*
X61225450Y-80577538D01*
X61397326Y-80720232D01*
X61590200Y-80832938D01*
X61798892Y-80912630D01*
X61803960Y-80913661D01*
X61803963Y-80913662D01*
X61899062Y-80933010D01*
X62017797Y-80957167D01*
X62022972Y-80957357D01*
X62022974Y-80957357D01*
X62235873Y-80965164D01*
X62235877Y-80965164D01*
X62241037Y-80965353D01*
X62246157Y-80964697D01*
X62246159Y-80964697D01*
X62457488Y-80937625D01*
X62457489Y-80937625D01*
X62462616Y-80936968D01*
X62467566Y-80935483D01*
X62671629Y-80874261D01*
X62671634Y-80874259D01*
X62676584Y-80872774D01*
X62877194Y-80774496D01*
X63059060Y-80644773D01*
X63217296Y-80487089D01*
X63276794Y-80404289D01*
X63347653Y-80305677D01*
X63348976Y-80306628D01*
X63395845Y-80263457D01*
X63465780Y-80251225D01*
X63531226Y-80278744D01*
X63559075Y-80310594D01*
X63619187Y-80408688D01*
X63765450Y-80577538D01*
X63937326Y-80720232D01*
X64130200Y-80832938D01*
X64338892Y-80912630D01*
X64343960Y-80913661D01*
X64343963Y-80913662D01*
X64439062Y-80933010D01*
X64557797Y-80957167D01*
X64562972Y-80957357D01*
X64562974Y-80957357D01*
X64775873Y-80965164D01*
X64775877Y-80965164D01*
X64781037Y-80965353D01*
X64786157Y-80964697D01*
X64786159Y-80964697D01*
X64997488Y-80937625D01*
X64997489Y-80937625D01*
X65002616Y-80936968D01*
X65007566Y-80935483D01*
X65211629Y-80874261D01*
X65211634Y-80874259D01*
X65216584Y-80872774D01*
X65417194Y-80774496D01*
X65599060Y-80644773D01*
X65757296Y-80487089D01*
X65816794Y-80404289D01*
X65887653Y-80305677D01*
X65888976Y-80306628D01*
X65935845Y-80263457D01*
X66005780Y-80251225D01*
X66071226Y-80278744D01*
X66099075Y-80310594D01*
X66159187Y-80408688D01*
X66305450Y-80577538D01*
X66477326Y-80720232D01*
X66670200Y-80832938D01*
X66878892Y-80912630D01*
X66883960Y-80913661D01*
X66883963Y-80913662D01*
X66979062Y-80933010D01*
X67097797Y-80957167D01*
X67102972Y-80957357D01*
X67102974Y-80957357D01*
X67315873Y-80965164D01*
X67315877Y-80965164D01*
X67321037Y-80965353D01*
X67326157Y-80964697D01*
X67326159Y-80964697D01*
X67537488Y-80937625D01*
X67537489Y-80937625D01*
X67542616Y-80936968D01*
X67547566Y-80935483D01*
X67751629Y-80874261D01*
X67751634Y-80874259D01*
X67756584Y-80872774D01*
X67957194Y-80774496D01*
X68139060Y-80644773D01*
X68297296Y-80487089D01*
X68356794Y-80404289D01*
X68427653Y-80305677D01*
X68428976Y-80306628D01*
X68475845Y-80263457D01*
X68545780Y-80251225D01*
X68611226Y-80278744D01*
X68639075Y-80310594D01*
X68699187Y-80408688D01*
X68845450Y-80577538D01*
X69017326Y-80720232D01*
X69210200Y-80832938D01*
X69418892Y-80912630D01*
X69423960Y-80913661D01*
X69423963Y-80913662D01*
X69519062Y-80933010D01*
X69637797Y-80957167D01*
X69642972Y-80957357D01*
X69642974Y-80957357D01*
X69855873Y-80965164D01*
X69855877Y-80965164D01*
X69861037Y-80965353D01*
X69866157Y-80964697D01*
X69866159Y-80964697D01*
X70077488Y-80937625D01*
X70077489Y-80937625D01*
X70082616Y-80936968D01*
X70087566Y-80935483D01*
X70291629Y-80874261D01*
X70291634Y-80874259D01*
X70296584Y-80872774D01*
X70497194Y-80774496D01*
X70679060Y-80644773D01*
X70837296Y-80487089D01*
X70896794Y-80404289D01*
X70967653Y-80305677D01*
X70968976Y-80306628D01*
X71015845Y-80263457D01*
X71085780Y-80251225D01*
X71151226Y-80278744D01*
X71179075Y-80310594D01*
X71239187Y-80408688D01*
X71385450Y-80577538D01*
X71557326Y-80720232D01*
X71750200Y-80832938D01*
X71958892Y-80912630D01*
X71963960Y-80913661D01*
X71963963Y-80913662D01*
X72059062Y-80933010D01*
X72177797Y-80957167D01*
X72182972Y-80957357D01*
X72182974Y-80957357D01*
X72395873Y-80965164D01*
X72395877Y-80965164D01*
X72401037Y-80965353D01*
X72406157Y-80964697D01*
X72406159Y-80964697D01*
X72617488Y-80937625D01*
X72617489Y-80937625D01*
X72622616Y-80936968D01*
X72627566Y-80935483D01*
X72831629Y-80874261D01*
X72831634Y-80874259D01*
X72836584Y-80872774D01*
X73037194Y-80774496D01*
X73219060Y-80644773D01*
X73377296Y-80487089D01*
X73436794Y-80404289D01*
X73507653Y-80305677D01*
X73508840Y-80306530D01*
X73556160Y-80262962D01*
X73626097Y-80250745D01*
X73691538Y-80278278D01*
X73719366Y-80310111D01*
X73776894Y-80403988D01*
X73782977Y-80412299D01*
X73922413Y-80573267D01*
X73929780Y-80580483D01*
X74093634Y-80716516D01*
X74102081Y-80722431D01*
X74285956Y-80829879D01*
X74295242Y-80834329D01*
X74494201Y-80910303D01*
X74504099Y-80913179D01*
X74607450Y-80934206D01*
X74621499Y-80933010D01*
X74625200Y-80922665D01*
X74625200Y-80922117D01*
X75133200Y-80922117D01*
X75137264Y-80935959D01*
X75150678Y-80937993D01*
X75157384Y-80937134D01*
X75167462Y-80934992D01*
X75371455Y-80873791D01*
X75381042Y-80870033D01*
X75572295Y-80776339D01*
X75581145Y-80771064D01*
X75754528Y-80647392D01*
X75762393Y-80640745D01*
X75867097Y-80536405D01*
X75929468Y-80502489D01*
X76000275Y-80507677D01*
X76057037Y-80550323D01*
X76074019Y-80581426D01*
X76118585Y-80700305D01*
X76205939Y-80816861D01*
X76322495Y-80904215D01*
X76458884Y-80955345D01*
X76521066Y-80962100D01*
X78317334Y-80962100D01*
X78379516Y-80955345D01*
X78515905Y-80904215D01*
X78632461Y-80816861D01*
X78719815Y-80700305D01*
X78770945Y-80563916D01*
X78777700Y-80501734D01*
X78777700Y-78705466D01*
X78770945Y-78643284D01*
X78719815Y-78506895D01*
X78632461Y-78390339D01*
X78515905Y-78302985D01*
X78379516Y-78251855D01*
X78317334Y-78245100D01*
X76521066Y-78245100D01*
X76458884Y-78251855D01*
X76322495Y-78302985D01*
X76205939Y-78390339D01*
X76118585Y-78506895D01*
X76115433Y-78515303D01*
X76115432Y-78515305D01*
X76073922Y-78626033D01*
X76031281Y-78682798D01*
X75964719Y-78707498D01*
X75895370Y-78692291D01*
X75862746Y-78666604D01*
X75811999Y-78610834D01*
X75804473Y-78603815D01*
X75637339Y-78471822D01*
X75628752Y-78466117D01*
X75442317Y-78363199D01*
X75432905Y-78358969D01*
X75232159Y-78287880D01*
X75222188Y-78285246D01*
X75151037Y-78272572D01*
X75137740Y-78274032D01*
X75133200Y-78288589D01*
X75133200Y-80922117D01*
X74625200Y-80922117D01*
X74625200Y-78286702D01*
X74621282Y-78273358D01*
X74607006Y-78271371D01*
X74568524Y-78277260D01*
X74558488Y-78279651D01*
X74356068Y-78345812D01*
X74346559Y-78349809D01*
X74157663Y-78448142D01*
X74148938Y-78453636D01*
X73978633Y-78581505D01*
X73970926Y-78588348D01*
X73823790Y-78742317D01*
X73817309Y-78750322D01*
X73712698Y-78903674D01*
X73657787Y-78948676D01*
X73587262Y-78956847D01*
X73523515Y-78925593D01*
X73502818Y-78901109D01*
X73422022Y-78776217D01*
X73422020Y-78776214D01*
X73419214Y-78771877D01*
X73268870Y-78606651D01*
X73264819Y-78603452D01*
X73264815Y-78603448D01*
X73097614Y-78471400D01*
X73097610Y-78471398D01*
X73093559Y-78468198D01*
X73057228Y-78448142D01*
X72973188Y-78401750D01*
X72897989Y-78360238D01*
X72893120Y-78358514D01*
X72893116Y-78358512D01*
X72692287Y-78287395D01*
X72692283Y-78287394D01*
X72687412Y-78285669D01*
X72682319Y-78284762D01*
X72682316Y-78284761D01*
X72472573Y-78247400D01*
X72472567Y-78247399D01*
X72467484Y-78246494D01*
X72393652Y-78245592D01*
X72249281Y-78243828D01*
X72249279Y-78243828D01*
X72244111Y-78243765D01*
X72023291Y-78277555D01*
X71810956Y-78346957D01*
X71737957Y-78384958D01*
X71706217Y-78401481D01*
X71612807Y-78450107D01*
X71608674Y-78453210D01*
X71608671Y-78453212D01*
X71472563Y-78555405D01*
X71434165Y-78584235D01*
X71279829Y-78745738D01*
X71172401Y-78903221D01*
X71117493Y-78948221D01*
X71046968Y-78956392D01*
X70983221Y-78925138D01*
X70962524Y-78900654D01*
X70882022Y-78776217D01*
X70882020Y-78776214D01*
X70879214Y-78771877D01*
X70728870Y-78606651D01*
X70724819Y-78603452D01*
X70724815Y-78603448D01*
X70557614Y-78471400D01*
X70557610Y-78471398D01*
X70553559Y-78468198D01*
X70517228Y-78448142D01*
X70433188Y-78401750D01*
X70357989Y-78360238D01*
X70353120Y-78358514D01*
X70353116Y-78358512D01*
X70152287Y-78287395D01*
X70152283Y-78287394D01*
X70147412Y-78285669D01*
X70142319Y-78284762D01*
X70142316Y-78284761D01*
X69932573Y-78247400D01*
X69932567Y-78247399D01*
X69927484Y-78246494D01*
X69853652Y-78245592D01*
X69709281Y-78243828D01*
X69709279Y-78243828D01*
X69704111Y-78243765D01*
X69483291Y-78277555D01*
X69270956Y-78346957D01*
X69197957Y-78384958D01*
X69166217Y-78401481D01*
X69072807Y-78450107D01*
X69068674Y-78453210D01*
X69068671Y-78453212D01*
X68932563Y-78555405D01*
X68894165Y-78584235D01*
X68739829Y-78745738D01*
X68632401Y-78903221D01*
X68577493Y-78948221D01*
X68506968Y-78956392D01*
X68443221Y-78925138D01*
X68422524Y-78900654D01*
X68342022Y-78776217D01*
X68342020Y-78776214D01*
X68339214Y-78771877D01*
X68188870Y-78606651D01*
X68184819Y-78603452D01*
X68184815Y-78603448D01*
X68017614Y-78471400D01*
X68017610Y-78471398D01*
X68013559Y-78468198D01*
X67977228Y-78448142D01*
X67893188Y-78401750D01*
X67817989Y-78360238D01*
X67813120Y-78358514D01*
X67813116Y-78358512D01*
X67612287Y-78287395D01*
X67612283Y-78287394D01*
X67607412Y-78285669D01*
X67493290Y-78265341D01*
X67426294Y-78230390D01*
X66857122Y-77661218D01*
X66823096Y-77598906D01*
X66820907Y-77585293D01*
X66804232Y-77426635D01*
X66804232Y-77426633D01*
X66803542Y-77420072D01*
X66744527Y-77238444D01*
X66683889Y-77133416D01*
X66677019Y-77121516D01*
X66660281Y-77052520D01*
X66683502Y-76985429D01*
X66692503Y-76974204D01*
X66694621Y-76971852D01*
X66694622Y-76971851D01*
X66699040Y-76966944D01*
X66794527Y-76801556D01*
X66853542Y-76619928D01*
X66873504Y-76430000D01*
X66853542Y-76240072D01*
X66794527Y-76058444D01*
X66699040Y-75893056D01*
X66571253Y-75751134D01*
X66416752Y-75638882D01*
X66410724Y-75636198D01*
X66410722Y-75636197D01*
X66248319Y-75563891D01*
X66248318Y-75563891D01*
X66242288Y-75561206D01*
X66148887Y-75541353D01*
X66061944Y-75522872D01*
X66061939Y-75522872D01*
X66055487Y-75521500D01*
X65864513Y-75521500D01*
X65858061Y-75522872D01*
X65858056Y-75522872D01*
X65771113Y-75541353D01*
X65677712Y-75561206D01*
X65671682Y-75563891D01*
X65671681Y-75563891D01*
X65509278Y-75636197D01*
X65509276Y-75636198D01*
X65503248Y-75638882D01*
X65348747Y-75751134D01*
X65220960Y-75893056D01*
X65217659Y-75898774D01*
X65133523Y-76044501D01*
X65113499Y-76070597D01*
X64326942Y-76857153D01*
X64318663Y-76864687D01*
X64312182Y-76868800D01*
X64265557Y-76918451D01*
X64262802Y-76921293D01*
X64243065Y-76941030D01*
X64240585Y-76944227D01*
X64232882Y-76953247D01*
X64202614Y-76985479D01*
X64198795Y-76992425D01*
X64198793Y-76992428D01*
X64192852Y-77003234D01*
X64182001Y-77019753D01*
X64169586Y-77035759D01*
X64166441Y-77043028D01*
X64166438Y-77043032D01*
X64152026Y-77076337D01*
X64146809Y-77086987D01*
X64125505Y-77125740D01*
X64123534Y-77133415D01*
X64123534Y-77133416D01*
X64120467Y-77145362D01*
X64114063Y-77164066D01*
X64106019Y-77182655D01*
X64104780Y-77190478D01*
X64104777Y-77190488D01*
X64099101Y-77226324D01*
X64096695Y-77237944D01*
X64085700Y-77280770D01*
X64085700Y-77301024D01*
X64084149Y-77320734D01*
X64080980Y-77340743D01*
X64081726Y-77348635D01*
X64085141Y-77384761D01*
X64085700Y-77396619D01*
X64085700Y-78325292D01*
X64065698Y-78393413D01*
X64017883Y-78437053D01*
X63992807Y-78450107D01*
X63988674Y-78453210D01*
X63988671Y-78453212D01*
X63852563Y-78555405D01*
X63814165Y-78584235D01*
X63659829Y-78745738D01*
X63552401Y-78903221D01*
X63497493Y-78948221D01*
X63426968Y-78956392D01*
X63363221Y-78925138D01*
X63342524Y-78900654D01*
X63262022Y-78776217D01*
X63262020Y-78776214D01*
X63259214Y-78771877D01*
X63108870Y-78606651D01*
X63104819Y-78603452D01*
X63104815Y-78603448D01*
X62937614Y-78471400D01*
X62937610Y-78471398D01*
X62933559Y-78468198D01*
X62897228Y-78448142D01*
X62813188Y-78401750D01*
X62737989Y-78360238D01*
X62733120Y-78358514D01*
X62733116Y-78358512D01*
X62532287Y-78287395D01*
X62532283Y-78287394D01*
X62527412Y-78285669D01*
X62522319Y-78284762D01*
X62522316Y-78284761D01*
X62312573Y-78247400D01*
X62312567Y-78247399D01*
X62307484Y-78246494D01*
X62233652Y-78245592D01*
X62089281Y-78243828D01*
X62089279Y-78243828D01*
X62084111Y-78243765D01*
X61863291Y-78277555D01*
X61650956Y-78346957D01*
X61577957Y-78384958D01*
X61546217Y-78401481D01*
X61452807Y-78450107D01*
X61448674Y-78453210D01*
X61448671Y-78453212D01*
X61312563Y-78555405D01*
X61274165Y-78584235D01*
X61119829Y-78745738D01*
X61116920Y-78750003D01*
X61116914Y-78750011D01*
X61104609Y-78768050D01*
X60993943Y-78930280D01*
X60899888Y-79132905D01*
X60840189Y-79348170D01*
X60816451Y-79570295D01*
X48260500Y-79570295D01*
X48260500Y-73914000D01*
X60204693Y-73914000D01*
X60223885Y-74133371D01*
X60280880Y-74346076D01*
X60283205Y-74351061D01*
X60371618Y-74540666D01*
X60371621Y-74540671D01*
X60373944Y-74545653D01*
X60500251Y-74726038D01*
X60655962Y-74881749D01*
X60836346Y-75008056D01*
X61035924Y-75101120D01*
X61248629Y-75158115D01*
X61468000Y-75177307D01*
X61687371Y-75158115D01*
X61900076Y-75101120D01*
X62099654Y-75008056D01*
X62280038Y-74881749D01*
X62435749Y-74726038D01*
X62562056Y-74545653D01*
X62564379Y-74540671D01*
X62564382Y-74540666D01*
X62652795Y-74351061D01*
X62655120Y-74346076D01*
X62712115Y-74133371D01*
X62731307Y-73914000D01*
X62712115Y-73694629D01*
X62655120Y-73481924D01*
X62611585Y-73388562D01*
X62564382Y-73287334D01*
X62564379Y-73287329D01*
X62562056Y-73282347D01*
X62435749Y-73101962D01*
X62280038Y-72946251D01*
X62099654Y-72819944D01*
X61900076Y-72726880D01*
X61687371Y-72669885D01*
X61468000Y-72650693D01*
X61248629Y-72669885D01*
X61035924Y-72726880D01*
X60942562Y-72770415D01*
X60841334Y-72817618D01*
X60841329Y-72817621D01*
X60836347Y-72819944D01*
X60831840Y-72823100D01*
X60831838Y-72823101D01*
X60660473Y-72943092D01*
X60660470Y-72943094D01*
X60655962Y-72946251D01*
X60500251Y-73101962D01*
X60373944Y-73282347D01*
X60371621Y-73287329D01*
X60371618Y-73287334D01*
X60324415Y-73388562D01*
X60280880Y-73481924D01*
X60223885Y-73694629D01*
X60204693Y-73914000D01*
X48260500Y-73914000D01*
X48260500Y-69034000D01*
X60204693Y-69034000D01*
X60223885Y-69253371D01*
X60280880Y-69466076D01*
X60283205Y-69471061D01*
X60371618Y-69660666D01*
X60371621Y-69660671D01*
X60373944Y-69665653D01*
X60500251Y-69846038D01*
X60655962Y-70001749D01*
X60836346Y-70128056D01*
X61035924Y-70221120D01*
X61248629Y-70278115D01*
X61468000Y-70297307D01*
X61687371Y-70278115D01*
X61900076Y-70221120D01*
X62099654Y-70128056D01*
X62280038Y-70001749D01*
X62435749Y-69846038D01*
X62562056Y-69665653D01*
X62564379Y-69660671D01*
X62564382Y-69660666D01*
X62652795Y-69471061D01*
X62655120Y-69466076D01*
X62712115Y-69253371D01*
X62731307Y-69034000D01*
X62712115Y-68814629D01*
X62655120Y-68601924D01*
X62611585Y-68508562D01*
X62564382Y-68407334D01*
X62564379Y-68407329D01*
X62562056Y-68402347D01*
X62435749Y-68221962D01*
X62280038Y-68066251D01*
X62099654Y-67939944D01*
X61900076Y-67846880D01*
X61687371Y-67789885D01*
X61468000Y-67770693D01*
X61248629Y-67789885D01*
X61035924Y-67846880D01*
X60942562Y-67890415D01*
X60841334Y-67937618D01*
X60841329Y-67937621D01*
X60836347Y-67939944D01*
X60831840Y-67943100D01*
X60831838Y-67943101D01*
X60660473Y-68063092D01*
X60660470Y-68063094D01*
X60655962Y-68066251D01*
X60500251Y-68221962D01*
X60373944Y-68402347D01*
X60371621Y-68407329D01*
X60371618Y-68407334D01*
X60324415Y-68508562D01*
X60280880Y-68601924D01*
X60223885Y-68814629D01*
X60204693Y-69034000D01*
X48260500Y-69034000D01*
X48260500Y-61094669D01*
X48902001Y-61094669D01*
X48902371Y-61101490D01*
X48907895Y-61152352D01*
X48911521Y-61167604D01*
X48956676Y-61288054D01*
X48965214Y-61303649D01*
X49041715Y-61405724D01*
X49054276Y-61418285D01*
X49156351Y-61494786D01*
X49171946Y-61503324D01*
X49292394Y-61548478D01*
X49307649Y-61552105D01*
X49358514Y-61557631D01*
X49365328Y-61558000D01*
X49887885Y-61558000D01*
X49903124Y-61553525D01*
X49904329Y-61552135D01*
X49906000Y-61544452D01*
X49906000Y-61539884D01*
X50414000Y-61539884D01*
X50418475Y-61555123D01*
X50419865Y-61556328D01*
X50427548Y-61557999D01*
X50954669Y-61557999D01*
X50961490Y-61557629D01*
X51012352Y-61552105D01*
X51027604Y-61548479D01*
X51148054Y-61503324D01*
X51163649Y-61494786D01*
X51265724Y-61418285D01*
X51278285Y-61405724D01*
X51354786Y-61303649D01*
X51363324Y-61288054D01*
X51408478Y-61167606D01*
X51412105Y-61152351D01*
X51417631Y-61101486D01*
X51418000Y-61094672D01*
X51418000Y-61094669D01*
X57402001Y-61094669D01*
X57402371Y-61101490D01*
X57407895Y-61152352D01*
X57411521Y-61167604D01*
X57456676Y-61288054D01*
X57465214Y-61303649D01*
X57541715Y-61405724D01*
X57554276Y-61418285D01*
X57656351Y-61494786D01*
X57671946Y-61503324D01*
X57792394Y-61548478D01*
X57807649Y-61552105D01*
X57858514Y-61557631D01*
X57865328Y-61558000D01*
X58387885Y-61558000D01*
X58403124Y-61553525D01*
X58404329Y-61552135D01*
X58406000Y-61544452D01*
X58406000Y-61539884D01*
X58914000Y-61539884D01*
X58918475Y-61555123D01*
X58919865Y-61556328D01*
X58927548Y-61557999D01*
X59454669Y-61557999D01*
X59461490Y-61557629D01*
X59512352Y-61552105D01*
X59527604Y-61548479D01*
X59648054Y-61503324D01*
X59663649Y-61494786D01*
X59765724Y-61418285D01*
X59778285Y-61405724D01*
X59854786Y-61303649D01*
X59863324Y-61288054D01*
X59908478Y-61167606D01*
X59912105Y-61152351D01*
X59914352Y-61131669D01*
X63326001Y-61131669D01*
X63326371Y-61138490D01*
X63331895Y-61189352D01*
X63335521Y-61204604D01*
X63380676Y-61325054D01*
X63389214Y-61340649D01*
X63465715Y-61442724D01*
X63478276Y-61455285D01*
X63580351Y-61531786D01*
X63595946Y-61540324D01*
X63716394Y-61585478D01*
X63731649Y-61589105D01*
X63782514Y-61594631D01*
X63789328Y-61595000D01*
X64311885Y-61595000D01*
X64327124Y-61590525D01*
X64328329Y-61589135D01*
X64330000Y-61581452D01*
X64330000Y-61576884D01*
X64838000Y-61576884D01*
X64842475Y-61592123D01*
X64843865Y-61593328D01*
X64851548Y-61594999D01*
X65378669Y-61594999D01*
X65385490Y-61594629D01*
X65436352Y-61589105D01*
X65451604Y-61585479D01*
X65572054Y-61540324D01*
X65587649Y-61531786D01*
X65689724Y-61455285D01*
X65702285Y-61442724D01*
X65778786Y-61340649D01*
X65787324Y-61325054D01*
X65832478Y-61204606D01*
X65836105Y-61189351D01*
X65841631Y-61138486D01*
X65842000Y-61131672D01*
X65842000Y-61131669D01*
X71826001Y-61131669D01*
X71826371Y-61138490D01*
X71831895Y-61189352D01*
X71835521Y-61204604D01*
X71880676Y-61325054D01*
X71889214Y-61340649D01*
X71965715Y-61442724D01*
X71978276Y-61455285D01*
X72080351Y-61531786D01*
X72095946Y-61540324D01*
X72216394Y-61585478D01*
X72231649Y-61589105D01*
X72282514Y-61594631D01*
X72289328Y-61595000D01*
X72811885Y-61595000D01*
X72827124Y-61590525D01*
X72828329Y-61589135D01*
X72830000Y-61581452D01*
X72830000Y-61576884D01*
X73338000Y-61576884D01*
X73342475Y-61592123D01*
X73343865Y-61593328D01*
X73351548Y-61594999D01*
X73878669Y-61594999D01*
X73885490Y-61594629D01*
X73936352Y-61589105D01*
X73951604Y-61585479D01*
X74072054Y-61540324D01*
X74087649Y-61531786D01*
X74189724Y-61455285D01*
X74202285Y-61442724D01*
X74278786Y-61340649D01*
X74287324Y-61325054D01*
X74332478Y-61204606D01*
X74336105Y-61189351D01*
X74341631Y-61138486D01*
X74342000Y-61131672D01*
X74342000Y-61084669D01*
X77182001Y-61084669D01*
X77182371Y-61091490D01*
X77187895Y-61142352D01*
X77191521Y-61157604D01*
X77236676Y-61278054D01*
X77245214Y-61293649D01*
X77321715Y-61395724D01*
X77334276Y-61408285D01*
X77436351Y-61484786D01*
X77451946Y-61493324D01*
X77572394Y-61538478D01*
X77587649Y-61542105D01*
X77638514Y-61547631D01*
X77645328Y-61548000D01*
X78167885Y-61548000D01*
X78183124Y-61543525D01*
X78184329Y-61542135D01*
X78186000Y-61534452D01*
X78186000Y-61529884D01*
X78694000Y-61529884D01*
X78698475Y-61545123D01*
X78699865Y-61546328D01*
X78707548Y-61547999D01*
X79234669Y-61547999D01*
X79241490Y-61547629D01*
X79292352Y-61542105D01*
X79307604Y-61538479D01*
X79428054Y-61493324D01*
X79443649Y-61484786D01*
X79545724Y-61408285D01*
X79558285Y-61395724D01*
X79634786Y-61293649D01*
X79643324Y-61278054D01*
X79688478Y-61157606D01*
X79692105Y-61142351D01*
X79697631Y-61091486D01*
X79698000Y-61084672D01*
X79698000Y-61084669D01*
X85682001Y-61084669D01*
X85682371Y-61091490D01*
X85687895Y-61142352D01*
X85691521Y-61157604D01*
X85736676Y-61278054D01*
X85745214Y-61293649D01*
X85821715Y-61395724D01*
X85834276Y-61408285D01*
X85936351Y-61484786D01*
X85951946Y-61493324D01*
X86072394Y-61538478D01*
X86087649Y-61542105D01*
X86138514Y-61547631D01*
X86145328Y-61548000D01*
X86667885Y-61548000D01*
X86683124Y-61543525D01*
X86684329Y-61542135D01*
X86686000Y-61534452D01*
X86686000Y-58772115D01*
X86681525Y-58756876D01*
X86680135Y-58755671D01*
X86672452Y-58754000D01*
X85700116Y-58754000D01*
X85684877Y-58758475D01*
X85683672Y-58759865D01*
X85682001Y-58767548D01*
X85682001Y-61084669D01*
X79698000Y-61084669D01*
X79698000Y-58772115D01*
X79693525Y-58756876D01*
X79692135Y-58755671D01*
X79684452Y-58754000D01*
X78712115Y-58754000D01*
X78696876Y-58758475D01*
X78695671Y-58759865D01*
X78694000Y-58767548D01*
X78694000Y-61529884D01*
X78186000Y-61529884D01*
X78186000Y-58772115D01*
X78181525Y-58756876D01*
X78180135Y-58755671D01*
X78172452Y-58754000D01*
X77200116Y-58754000D01*
X77184877Y-58758475D01*
X77183672Y-58759865D01*
X77182001Y-58767548D01*
X77182001Y-61084669D01*
X74342000Y-61084669D01*
X74342000Y-58819115D01*
X74337525Y-58803876D01*
X74336135Y-58802671D01*
X74328452Y-58801000D01*
X73356115Y-58801000D01*
X73340876Y-58805475D01*
X73339671Y-58806865D01*
X73338000Y-58814548D01*
X73338000Y-61576884D01*
X72830000Y-61576884D01*
X72830000Y-58819115D01*
X72825525Y-58803876D01*
X72824135Y-58802671D01*
X72816452Y-58801000D01*
X71844116Y-58801000D01*
X71828877Y-58805475D01*
X71827672Y-58806865D01*
X71826001Y-58814548D01*
X71826001Y-61131669D01*
X65842000Y-61131669D01*
X65842000Y-58819115D01*
X65837525Y-58803876D01*
X65836135Y-58802671D01*
X65828452Y-58801000D01*
X64856115Y-58801000D01*
X64840876Y-58805475D01*
X64839671Y-58806865D01*
X64838000Y-58814548D01*
X64838000Y-61576884D01*
X64330000Y-61576884D01*
X64330000Y-58819115D01*
X64325525Y-58803876D01*
X64324135Y-58802671D01*
X64316452Y-58801000D01*
X63344116Y-58801000D01*
X63328877Y-58805475D01*
X63327672Y-58806865D01*
X63326001Y-58814548D01*
X63326001Y-61131669D01*
X59914352Y-61131669D01*
X59917631Y-61101486D01*
X59918000Y-61094672D01*
X59918000Y-58782115D01*
X59913525Y-58766876D01*
X59912135Y-58765671D01*
X59904452Y-58764000D01*
X58932115Y-58764000D01*
X58916876Y-58768475D01*
X58915671Y-58769865D01*
X58914000Y-58777548D01*
X58914000Y-61539884D01*
X58406000Y-61539884D01*
X58406000Y-58782115D01*
X58401525Y-58766876D01*
X58400135Y-58765671D01*
X58392452Y-58764000D01*
X57420116Y-58764000D01*
X57404877Y-58768475D01*
X57403672Y-58769865D01*
X57402001Y-58777548D01*
X57402001Y-61094669D01*
X51418000Y-61094669D01*
X51418000Y-58782115D01*
X51413525Y-58766876D01*
X51412135Y-58765671D01*
X51404452Y-58764000D01*
X50432115Y-58764000D01*
X50416876Y-58768475D01*
X50415671Y-58769865D01*
X50414000Y-58777548D01*
X50414000Y-61539884D01*
X49906000Y-61539884D01*
X49906000Y-58782115D01*
X49901525Y-58766876D01*
X49900135Y-58765671D01*
X49892452Y-58764000D01*
X48920116Y-58764000D01*
X48904877Y-58768475D01*
X48903672Y-58769865D01*
X48902001Y-58777548D01*
X48902001Y-61094669D01*
X48260500Y-61094669D01*
X48260500Y-56514500D01*
X48280502Y-56446379D01*
X48334158Y-56399886D01*
X48386500Y-56388500D01*
X48776000Y-56388500D01*
X48844121Y-56408502D01*
G37*
%TD.AperFunction*%
%TD*%
M02*
