%TF.GenerationSoftware,KiCad,Pcbnew,(6.0.11)*%
%TF.CreationDate,2023-11-05T19:40:27-06:00*%
%TF.ProjectId,PLLBoard,504c4c42-6f61-4726-942e-6b696361645f,rev?*%
%TF.SameCoordinates,Original*%
%TF.FileFunction,Paste,Top*%
%TF.FilePolarity,Positive*%
%FSLAX46Y46*%
G04 Gerber Fmt 4.6, Leading zero omitted, Abs format (unit mm)*
G04 Created by KiCad (PCBNEW (6.0.11)) date 2023-11-05 19:40:27*
%MOMM*%
%LPD*%
G01*
G04 APERTURE LIST*
G04 Aperture macros list*
%AMRoundRect*
0 Rectangle with rounded corners*
0 $1 Rounding radius*
0 $2 $3 $4 $5 $6 $7 $8 $9 X,Y pos of 4 corners*
0 Add a 4 corners polygon primitive as box body*
4,1,4,$2,$3,$4,$5,$6,$7,$8,$9,$2,$3,0*
0 Add four circle primitives for the rounded corners*
1,1,$1+$1,$2,$3*
1,1,$1+$1,$4,$5*
1,1,$1+$1,$6,$7*
1,1,$1+$1,$8,$9*
0 Add four rect primitives between the rounded corners*
20,1,$1+$1,$2,$3,$4,$5,0*
20,1,$1+$1,$4,$5,$6,$7,0*
20,1,$1+$1,$6,$7,$8,$9,0*
20,1,$1+$1,$8,$9,$2,$3,0*%
G04 Aperture macros list end*
%ADD10R,1.500000X2.000000*%
%ADD11R,3.800000X2.000000*%
%ADD12R,1.500000X5.080000*%
%ADD13RoundRect,0.250000X0.450000X-0.350000X0.450000X0.350000X-0.450000X0.350000X-0.450000X-0.350000X0*%
%ADD14RoundRect,0.250000X-0.450000X0.350000X-0.450000X-0.350000X0.450000X-0.350000X0.450000X0.350000X0*%
%ADD15RoundRect,0.250000X-0.475000X0.337500X-0.475000X-0.337500X0.475000X-0.337500X0.475000X0.337500X0*%
%ADD16RoundRect,0.250000X-0.350000X-0.450000X0.350000X-0.450000X0.350000X0.450000X-0.350000X0.450000X0*%
%ADD17RoundRect,0.150000X-0.150000X0.587500X-0.150000X-0.587500X0.150000X-0.587500X0.150000X0.587500X0*%
%ADD18RoundRect,0.250000X0.475000X-0.337500X0.475000X0.337500X-0.475000X0.337500X-0.475000X-0.337500X0*%
%ADD19RoundRect,0.250000X-0.337500X-0.475000X0.337500X-0.475000X0.337500X0.475000X-0.337500X0.475000X0*%
%ADD20RoundRect,0.250000X0.337500X0.475000X-0.337500X0.475000X-0.337500X-0.475000X0.337500X-0.475000X0*%
%ADD21R,0.300000X1.400000*%
%ADD22R,2.100000X1.800000*%
%ADD23R,1.000000X1.150000*%
G04 APERTURE END LIST*
D10*
%TO.C,U1*%
X79234000Y-75794000D03*
X81534000Y-75794000D03*
D11*
X81534000Y-69494000D03*
D10*
X83834000Y-75794000D03*
%TD*%
D12*
%TO.C,J4*%
X82690000Y-58500000D03*
X86940000Y-58500000D03*
X78440000Y-58500000D03*
%TD*%
D13*
%TO.C,R10*%
X51640000Y-72590000D03*
X51640000Y-70590000D03*
%TD*%
D14*
%TO.C,R7*%
X53780000Y-66440000D03*
X53780000Y-68440000D03*
%TD*%
D15*
%TO.C,C6*%
X51660000Y-66432500D03*
X51660000Y-68507500D03*
%TD*%
D16*
%TO.C,R8*%
X55680000Y-76480000D03*
X57680000Y-76480000D03*
%TD*%
%TO.C,R4*%
X74946000Y-67564000D03*
X76946000Y-67564000D03*
%TD*%
D17*
%TO.C,Q2*%
X77150000Y-69928500D03*
X75250000Y-69928500D03*
X76200000Y-71803500D03*
%TD*%
D18*
%TO.C,C4*%
X69590000Y-73457500D03*
X69590000Y-71382500D03*
%TD*%
D19*
%TO.C,C8*%
X56409500Y-81026000D03*
X54334500Y-81026000D03*
%TD*%
%TO.C,C1*%
X82020500Y-78486000D03*
X84095500Y-78486000D03*
%TD*%
D20*
%TO.C,C3*%
X82571500Y-67056000D03*
X80496500Y-67056000D03*
%TD*%
D12*
%TO.C,J3*%
X68834000Y-58547000D03*
X73084000Y-58547000D03*
X64584000Y-58547000D03*
%TD*%
D16*
%TO.C,R3*%
X70882000Y-67564000D03*
X72882000Y-67564000D03*
%TD*%
D20*
%TO.C,C2*%
X82571500Y-82296000D03*
X80496500Y-82296000D03*
%TD*%
D21*
%TO.C,U2*%
X67548000Y-69428000D03*
X67048000Y-69428000D03*
X66548000Y-69428000D03*
X66048000Y-69428000D03*
X65548000Y-69428000D03*
X65548000Y-73828000D03*
X66048000Y-73828000D03*
X66548000Y-73828000D03*
X67048000Y-73828000D03*
X67548000Y-73828000D03*
%TD*%
D19*
%TO.C,C5*%
X56802500Y-78670000D03*
X58877500Y-78670000D03*
%TD*%
D12*
%TO.C,J2*%
X54410000Y-58510000D03*
X58660000Y-58510000D03*
X50160000Y-58510000D03*
%TD*%
D13*
%TO.C,R1*%
X73152000Y-76168000D03*
X73152000Y-74168000D03*
%TD*%
D22*
%TO.C,Y1*%
X54230000Y-73250000D03*
X57130000Y-73250000D03*
X57130000Y-70950000D03*
X54230000Y-70950000D03*
%TD*%
D18*
%TO.C,C7*%
X58674000Y-82825500D03*
X58674000Y-80750500D03*
%TD*%
D13*
%TO.C,R6*%
X51520000Y-76610000D03*
X51520000Y-74610000D03*
%TD*%
D17*
%TO.C,Q1*%
X73340000Y-69928500D03*
X71440000Y-69928500D03*
X72390000Y-71803500D03*
%TD*%
D16*
%TO.C,R9*%
X51620000Y-78660000D03*
X53620000Y-78660000D03*
%TD*%
D23*
%TO.C,Y3*%
X56110000Y-66515000D03*
X56110000Y-68265000D03*
X57510000Y-68265000D03*
X57510000Y-66515000D03*
%TD*%
D13*
%TO.C,R2*%
X75184000Y-76168000D03*
X75184000Y-74168000D03*
%TD*%
M02*
